<svg width="22" height="22" viewBox="0 0 22 22" fill="none" xmlns="http://www.w3.org/2000/svg">
<path d="M18.3233 1.36055e-07H3.67667C2.70155 1.36055e-07 1.76638 0.387362 1.07687 1.07687C0.387362 1.76638 0 2.70155 0 3.67667L0 18.3233C0 19.2984 0.387362 20.2336 1.07687 20.9231C1.76638 21.6126 2.70155 22 3.67667 22H18.3233C18.8062 22.0001 19.2843 21.905 19.7304 21.7203C20.1765 21.5355 20.5819 21.2647 20.9233 20.9233C21.2647 20.5819 21.5355 20.1765 21.7203 19.7304C21.905 19.2843 22.0001 18.8062 22 18.3233V3.67667C22.0001 3.1938 21.9051 2.71564 21.7204 2.26951C21.5357 1.82338 21.2649 1.41801 20.9234 1.07658C20.582 0.735141 20.1766 0.464325 19.7305 0.279602C19.2844 0.0948789 18.8062 -0.000131238 18.3233 1.36055e-07V1.36055e-07ZM18.0004 16.841C18.0004 17.1486 17.8782 17.4436 17.6606 17.6611C17.4431 17.8787 17.1481 18.0009 16.8405 18.0009H5.16203C5.00967 18.0009 4.85879 17.971 4.718 17.9127C4.57722 17.8545 4.4493 17.769 4.34154 17.6613C4.23378 17.5536 4.1483 17.4257 4.08998 17.285C4.03165 17.1442 4.00164 16.9933 4.00164 16.841V5.16203C4.00157 5.00963 4.03154 4.8587 4.08983 4.71789C4.14812 4.57707 4.2336 4.44913 4.34136 4.34136C4.44913 4.2336 4.57707 4.14812 4.71789 4.08983C4.8587 4.03154 5.00963 4.00157 5.16203 4.00164H16.8405C16.9928 4.00164 17.1437 4.03165 17.2845 4.08998C17.4252 4.1483 17.5531 4.23378 17.6608 4.34154C17.7685 4.4493 17.854 4.57722 17.9122 4.718C17.9705 4.85879 18.0004 5.00967 18.0004 5.16203V16.841Z" fill="black"/>
<path d="M8.66594 14.0002C8.29797 14.0002 8 13.7002 8 13.3308V8.6692C8 8.29973 8.29797 7.99976 8.66594 7.99976H13.3345C13.7035 7.99976 14.0005 8.29973 14.0005 8.6692V13.3308C14.0005 13.7002 13.7035 14.0002 13.3345 14.0002H8.66594Z" fill="black"/>
</svg>
