<svg width="198" height="32" viewBox="0 0 198 32" fill="none" xmlns="http://www.w3.org/2000/svg">
<rect width="198" height="32" rx="3" fill="#3E4348"/>
<path d="M46.0181 18.1069C45.7495 17.4575 45.6152 16.7568 45.6152 16.0049C45.6152 15.2529 45.7495 14.5522 46.0181 13.9028C46.2915 13.2534 46.6626 12.7065 47.1313 12.2622C47.6001 11.813 48.1567 11.4614 48.8013 11.2075C49.4458 10.9536 50.1343 10.8267 50.8667 10.8267C52.6099 10.8267 53.9502 11.5786 54.8877 13.0825L53.3862 13.8442C53.1372 13.4146 52.7856 13.0654 52.3315 12.7969C51.8774 12.5234 51.3892 12.3867 50.8667 12.3867C49.8755 12.3867 49.0527 12.7285 48.3984 13.4121C47.7441 14.0908 47.417 14.9551 47.417 16.0049C47.417 17.0547 47.7441 17.9214 48.3984 18.605C49.0527 19.2837 49.8755 19.623 50.8667 19.623C51.394 19.623 51.8823 19.4888 52.3315 19.2202C52.7856 18.9517 53.1372 18.6001 53.3862 18.1655L54.8877 18.9272C53.9355 20.4312 52.5952 21.1831 50.8667 21.1831C50.1343 21.1831 49.4458 21.0562 48.8013 20.8022C48.1567 20.5483 47.6001 20.1992 47.1313 19.7549C46.6626 19.3057 46.2915 18.7563 46.0181 18.1069ZM55.7959 17.3672C55.7959 16.8496 55.8838 16.3613 56.0596 15.9023C56.2354 15.4385 56.4795 15.0356 56.792 14.6938C57.1094 14.3472 57.5024 14.0737 57.9712 13.8735C58.4399 13.6733 58.9551 13.5732 59.5166 13.5732C60.2686 13.5732 60.9302 13.7466 61.5015 14.0933C62.0776 14.4399 62.5122 14.8989 62.8052 15.4702C63.103 16.0366 63.252 16.6689 63.252 17.3672C63.252 18.0703 63.103 18.71 62.8052 19.2861C62.5122 19.8574 62.0776 20.3164 61.5015 20.6631C60.9302 21.0098 60.2686 21.1831 59.5166 21.1831C58.9551 21.1831 58.4399 21.083 57.9712 20.8828C57.5024 20.6777 57.1094 20.4043 56.792 20.0625C56.4795 19.7158 56.2354 19.3105 56.0596 18.8467C55.8838 18.3828 55.7959 17.8896 55.7959 17.3672ZM57.4292 17.3672C57.4292 18.041 57.6172 18.6123 57.9932 19.0811C58.3691 19.5498 58.877 19.7842 59.5166 19.7842C60.166 19.7842 60.6763 19.5522 61.0474 19.0884C61.4233 18.6196 61.6113 18.0459 61.6113 17.3672C61.6113 16.6982 61.4233 16.1318 61.0474 15.668C60.6763 15.2041 60.166 14.9722 59.5166 14.9722C58.877 14.9722 58.3691 15.2041 57.9932 15.668C57.6172 16.1318 57.4292 16.6982 57.4292 17.3672ZM64.8413 21V13.7563H66.416V14.7451C66.6895 14.4229 67.0508 14.147 67.5 13.9175C67.9492 13.688 68.4375 13.5732 68.9648 13.5732C69.7363 13.5732 70.3198 13.7734 70.7153 14.1738C71.1108 14.5742 71.3086 15.1504 71.3086 15.9023V21H69.7339V16.4736C69.7339 15.9365 69.6069 15.5532 69.353 15.3237C69.104 15.0894 68.7451 14.9722 68.2764 14.9722C67.8955 14.9722 67.5391 15.0674 67.207 15.2578C66.875 15.4434 66.6113 15.6729 66.416 15.9463V21H64.8413ZM73.3521 21V13.7563H74.9268V14.7451C75.2002 14.4229 75.5615 14.147 76.0107 13.9175C76.46 13.688 76.9482 13.5732 77.4756 13.5732C78.2471 13.5732 78.8306 13.7734 79.2261 14.1738C79.6216 14.5742 79.8193 15.1504 79.8193 15.9023V21H78.2446V16.4736C78.2446 15.9365 78.1177 15.5532 77.8638 15.3237C77.6147 15.0894 77.2559 14.9722 76.7871 14.9722C76.4062 14.9722 76.0498 15.0674 75.7178 15.2578C75.3857 15.4434 75.1221 15.6729 74.9268 15.9463V21H73.3521ZM81.416 17.3672C81.416 16.6738 81.5698 16.0391 81.8774 15.4629C82.1899 14.8818 82.6294 14.4229 83.1958 14.0859C83.7622 13.7441 84.3945 13.5732 85.0928 13.5732C86.167 13.5732 87.0288 13.9443 87.6782 14.6865C88.3325 15.4238 88.6597 16.3687 88.6597 17.521V17.8945H83.064C83.1274 18.4658 83.3618 18.9419 83.7671 19.3228C84.1772 19.6987 84.7119 19.8867 85.3711 19.8867C85.7373 19.8867 86.1084 19.8184 86.4844 19.6816C86.8652 19.54 87.1802 19.3447 87.4292 19.0957L88.147 20.1284C87.7905 20.4702 87.3584 20.7314 86.8506 20.9121C86.3428 21.0928 85.7959 21.1831 85.21 21.1831C84.1113 21.1831 83.2031 20.8315 82.4854 20.1284C81.7725 19.4204 81.416 18.5 81.416 17.3672ZM83.0493 16.7886H87.1289C87.1191 16.564 87.0728 16.3442 86.9897 16.1294C86.9116 15.9097 86.7944 15.7021 86.6382 15.5068C86.4819 15.3115 86.2695 15.1553 86.001 15.0381C85.7373 14.9209 85.4346 14.8623 85.0928 14.8623C84.7705 14.8623 84.4775 14.9209 84.2139 15.0381C83.9551 15.1504 83.7451 15.3042 83.584 15.4995C83.4277 15.6899 83.3032 15.895 83.2104 16.1147C83.1226 16.3296 83.0688 16.5542 83.0493 16.7886ZM89.7656 17.3672C89.7656 16.2686 90.1147 15.3628 90.813 14.6499C91.5161 13.9321 92.417 13.5732 93.5156 13.5732C94.7266 13.5732 95.6519 14.0029 96.2915 14.8623L95.2515 15.8218C94.8511 15.2554 94.2969 14.9722 93.5889 14.9722C92.9346 14.9722 92.4048 15.1943 91.9995 15.6387C91.5991 16.083 91.3989 16.6592 91.3989 17.3672C91.3989 18.0801 91.5991 18.6611 91.9995 19.1104C92.4048 19.5596 92.9346 19.7842 93.5889 19.7842C94.2822 19.7842 94.8364 19.4985 95.2515 18.9272L96.2915 19.8867C95.647 20.751 94.7217 21.1831 93.5156 21.1831C92.417 21.1831 91.5161 20.8242 90.813 20.1064C90.1147 19.3887 89.7656 18.4756 89.7656 17.3672ZM96.7822 15.1333V13.7563H97.9834V11.7715H99.5581V13.7563H101.03V15.1333H99.5581V18.9272C99.5581 19.1812 99.6191 19.3887 99.7412 19.5498C99.8633 19.7061 100.034 19.7842 100.254 19.7842C100.396 19.7842 100.532 19.7598 100.664 19.7109C100.796 19.6572 100.894 19.5962 100.957 19.5278L101.331 20.7144C101.003 21.0269 100.508 21.1831 99.8438 21.1831C99.2383 21.1831 98.7769 21.0244 98.4595 20.707C98.1421 20.3848 97.9834 19.9233 97.9834 19.3228V15.1333H96.7822ZM105.366 13.7563H107L108.53 19.0225L110.259 13.7563H111.636L113.364 19.0225L114.895 13.7563H116.528L114.28 21H112.625L110.947 15.6899L109.27 21H107.615L105.366 13.7563ZM117.715 12.5845C117.524 12.394 117.429 12.1646 117.429 11.896C117.429 11.6274 117.524 11.3979 117.715 11.2075C117.91 11.0171 118.14 10.9219 118.403 10.9219C118.677 10.9219 118.906 11.0171 119.092 11.2075C119.282 11.3979 119.377 11.6274 119.377 11.896C119.377 12.1646 119.282 12.394 119.092 12.5845C118.906 12.7749 118.677 12.8701 118.403 12.8701C118.14 12.8701 117.91 12.7749 117.715 12.5845ZM117.62 21V13.7563H119.194V21H117.62ZM120.352 15.1333V13.7563H121.553V11.7715H123.127V13.7563H124.6V15.1333H123.127V18.9272C123.127 19.1812 123.188 19.3887 123.311 19.5498C123.433 19.7061 123.604 19.7842 123.823 19.7842C123.965 19.7842 124.102 19.7598 124.233 19.7109C124.365 19.6572 124.463 19.5962 124.526 19.5278L124.9 20.7144C124.573 21.0269 124.077 21.1831 123.413 21.1831C122.808 21.1831 122.346 21.0244 122.029 20.707C121.711 20.3848 121.553 19.9233 121.553 19.3228V15.1333H120.352ZM126.028 21V10.9951H127.603V14.7451C127.876 14.4229 128.24 14.147 128.694 13.9175C129.148 13.688 129.641 13.5732 130.173 13.5732C130.95 13.5732 131.533 13.7686 131.924 14.1592C132.314 14.5498 132.51 15.1211 132.51 15.873V21H130.935V16.437C130.935 15.9048 130.808 15.5288 130.554 15.3091C130.305 15.0845 129.941 14.9722 129.463 14.9722C129.087 14.9722 128.733 15.0674 128.401 15.2578C128.074 15.4434 127.808 15.6729 127.603 15.9463V21H126.028ZM137.805 19.5864L138.779 18.2388C139.16 18.644 139.622 18.9761 140.164 19.2349C140.706 19.4937 141.301 19.623 141.951 19.623C142.62 19.623 143.12 19.4888 143.452 19.2202C143.789 18.9468 143.958 18.6245 143.958 18.2534C143.958 18.0288 143.889 17.8335 143.752 17.6675C143.621 17.5015 143.442 17.3672 143.218 17.2646C142.993 17.1572 142.734 17.062 142.441 16.979C142.153 16.896 141.846 16.8154 141.519 16.7373C141.196 16.6543 140.874 16.5664 140.552 16.4736C140.229 16.376 139.922 16.2539 139.629 16.1074C139.341 15.9561 139.084 15.7827 138.86 15.5874C138.635 15.3872 138.455 15.1333 138.318 14.8257C138.186 14.5181 138.12 14.1665 138.12 13.771C138.12 12.936 138.457 12.2402 139.131 11.6836C139.81 11.127 140.688 10.8486 141.768 10.8486C143.311 10.8486 144.561 11.3125 145.518 12.2402L144.514 13.5439C144.138 13.168 143.696 12.8848 143.188 12.6943C142.686 12.499 142.163 12.4014 141.621 12.4014C141.108 12.4014 140.696 12.5161 140.383 12.7456C140.076 12.9702 139.922 13.2705 139.922 13.6465C139.922 13.8418 139.988 14.0151 140.12 14.1665C140.251 14.313 140.43 14.4351 140.654 14.5327C140.879 14.6255 141.138 14.7134 141.431 14.7964C141.724 14.8745 142.029 14.9551 142.346 15.0381C142.668 15.1211 142.991 15.2139 143.313 15.3164C143.635 15.4141 143.943 15.541 144.236 15.6973C144.529 15.8535 144.788 16.0342 145.012 16.2393C145.237 16.4443 145.415 16.7056 145.547 17.0229C145.679 17.3354 145.745 17.6919 145.745 18.0923C145.745 18.5171 145.667 18.9126 145.51 19.2788C145.359 19.645 145.129 19.9722 144.822 20.2603C144.519 20.5483 144.114 20.7754 143.606 20.9414C143.103 21.1025 142.524 21.1831 141.87 21.1831C140.156 21.1831 138.801 20.6509 137.805 19.5864ZM146.836 17.3672C146.836 16.1953 147.131 15.27 147.722 14.5913C148.313 13.9126 149.087 13.5732 150.044 13.5732C150.508 13.5732 150.94 13.6782 151.34 13.8882C151.746 14.0933 152.087 14.3789 152.366 14.7451V13.7563H153.94V23.7612H152.366V19.9966C151.77 20.7876 150.996 21.1831 150.044 21.1831C149.092 21.1831 148.318 20.8413 147.722 20.1577C147.131 19.4741 146.836 18.5439 146.836 17.3672ZM148.469 17.3672C148.469 18.0801 148.655 18.6611 149.026 19.1104C149.397 19.5596 149.89 19.7842 150.505 19.7842C150.862 19.7842 151.216 19.689 151.567 19.4985C151.924 19.3081 152.19 19.0786 152.366 18.8101V15.9463C152.19 15.6729 151.926 15.4434 151.575 15.2578C151.223 15.0674 150.867 14.9722 150.505 14.9722C149.89 14.9722 149.397 15.1968 149.026 15.646C148.655 16.0903 148.469 16.6641 148.469 17.3672ZM155.984 18.8833V13.7563H157.559V18.312C157.559 18.8491 157.683 19.23 157.932 19.4546C158.181 19.6743 158.542 19.7842 159.016 19.7842C159.392 19.7842 159.746 19.6938 160.078 19.5132C160.41 19.3325 160.676 19.1079 160.876 18.8394V13.7563H162.451V21H160.876V20.0405C160.583 20.3677 160.215 20.6411 159.771 20.8608C159.331 21.0757 158.845 21.1831 158.313 21.1831C157.542 21.1831 156.96 20.9878 156.57 20.5972C156.179 20.2065 155.984 19.6353 155.984 18.8833ZM164.062 18.7808C164.062 18.3804 164.136 18.0264 164.282 17.7188C164.434 17.4062 164.631 17.1597 164.875 16.979C165.125 16.7935 165.393 16.6543 165.681 16.5615C165.974 16.4688 166.274 16.4224 166.582 16.4224C167.607 16.4224 168.386 16.7324 168.918 17.3525V16.2759C168.918 15.8608 168.762 15.5337 168.45 15.2944C168.142 15.0503 167.734 14.9282 167.227 14.9282C166.416 14.9282 165.701 15.231 165.081 15.8364L164.436 14.7451C165.261 13.9639 166.277 13.5732 167.483 13.5732C167.903 13.5732 168.286 13.6221 168.633 13.7197C168.984 13.8125 169.302 13.959 169.585 14.1592C169.868 14.3545 170.09 14.6279 170.251 14.9795C170.413 15.3262 170.493 15.7339 170.493 16.2026V21H168.918V20.2236C168.645 20.5312 168.306 20.7681 167.9 20.9341C167.5 21.1001 167.061 21.1831 166.582 21.1831C166.279 21.1831 165.981 21.1318 165.688 21.0293C165.396 20.9268 165.125 20.7803 164.875 20.5898C164.631 20.3945 164.434 20.1406 164.282 19.8281C164.136 19.5156 164.062 19.1665 164.062 18.7808ZM165.652 18.8101C165.652 19.1958 165.796 19.5083 166.084 19.7476C166.377 19.9819 166.748 20.0991 167.197 20.0991C167.554 20.0991 167.886 20.0356 168.193 19.9087C168.501 19.7769 168.743 19.5913 168.918 19.3521V18.2534C168.743 18.0142 168.501 17.8311 168.193 17.7041C167.886 17.5723 167.554 17.5063 167.197 17.5063C166.748 17.5063 166.377 17.626 166.084 17.8652C165.796 18.0996 165.652 18.4146 165.652 18.8101ZM172.537 21V13.7563H174.111V14.8184C174.399 14.457 174.751 14.1616 175.166 13.9321C175.581 13.7026 176.016 13.5879 176.47 13.5879V15.1479C176.338 15.1187 176.172 15.104 175.972 15.104C175.64 15.104 175.286 15.2017 174.91 15.397C174.534 15.5874 174.268 15.8096 174.111 16.0635V21H172.537ZM177.29 17.3672C177.29 16.6738 177.444 16.0391 177.751 15.4629C178.064 14.8818 178.503 14.4229 179.07 14.0859C179.636 13.7441 180.269 13.5732 180.967 13.5732C182.041 13.5732 182.903 13.9443 183.552 14.6865C184.207 15.4238 184.534 16.3687 184.534 17.521V17.8945H178.938C179.001 18.4658 179.236 18.9419 179.641 19.3228C180.051 19.6987 180.586 19.8867 181.245 19.8867C181.611 19.8867 181.982 19.8184 182.358 19.6816C182.739 19.54 183.054 19.3447 183.303 19.0957L184.021 20.1284C183.665 20.4702 183.232 20.7314 182.725 20.9121C182.217 21.0928 181.67 21.1831 181.084 21.1831C179.985 21.1831 179.077 20.8315 178.359 20.1284C177.646 19.4204 177.29 18.5 177.29 17.3672ZM178.923 16.7886H183.003C182.993 16.564 182.947 16.3442 182.864 16.1294C182.786 15.9097 182.668 15.7021 182.512 15.5068C182.356 15.3115 182.144 15.1553 181.875 15.0381C181.611 14.9209 181.309 14.8623 180.967 14.8623C180.645 14.8623 180.352 14.9209 180.088 15.0381C179.829 15.1504 179.619 15.3042 179.458 15.4995C179.302 15.6899 179.177 15.895 179.084 16.1147C178.997 16.3296 178.943 16.5542 178.923 16.7886Z" fill="white"/>
<path fill-rule="evenodd" clip-rule="evenodd" d="M16.0076 7H27.9915C28.7893 6.99977 29.5546 7.31653 30.1188 7.88059C30.683 8.44464 31 9.20976 31 10.0076V21.9906C31 23.6522 29.653 24.9991 27.9915 24.9991H16.0076C14.3464 24.9986 13 23.6519 13 21.9906V10.0076C13 8.34653 14.3465 7 16.0076 7ZM26.7803 21.7269C27.3045 21.7269 27.7296 21.3019 27.7296 20.7777L27.7269 11.2223C27.7269 10.698 27.3019 10.273 26.7777 10.273H17.2232C16.9713 10.273 16.7297 10.3732 16.5516 10.5514C16.3736 10.7296 16.2737 10.9713 16.2739 11.2232V20.7777C16.2739 21.3019 16.6989 21.7269 17.2232 21.7269H26.7803Z" fill="white"/>
<path d="M20.0901 18.44C19.7908 18.4376 19.5495 18.1944 19.5495 17.8951V14.0806C19.5488 13.9356 19.6059 13.7964 19.7082 13.6936C19.8105 13.5909 19.9495 13.5331 20.0944 13.5331H23.9142C24.0591 13.5333 24.1979 13.5912 24.3002 13.6939C24.4024 13.7966 24.4595 13.9357 24.4591 14.0806V17.8942C24.4595 18.0391 24.4024 18.1783 24.3002 18.2809C24.1979 18.3837 24.0591 18.4415 23.9142 18.4418L20.0901 18.44Z" fill="white"/>
</svg>
